<svg xmlns="http://www.w3.org/2000/svg" xmlns:xlink="http://www.w3.org/1999/xlink" fill="none" version="1.1" width="50" height="50" viewBox="0 0 50 50"><g style="mix-blend-mode:passthrough"><g><g style="mix-blend-mode:passthrough"><path d="M27.07907736206055,14.503064389648438C26.87627736206055,14.503064389648438,26.673377362060545,14.503044389648437,26.470577362060546,14.604464389648438C26.470577362060546,14.604464389648438,23.935077362060547,12.981774389648438,23.935077362060547,12.981774389648438C23.935077362060547,12.170416389648437,23.22517736206055,11.561874389648438,22.515177362060548,11.561874389648438C21.703877362060545,11.561874389648438,21.095377362060546,12.170416389648437,21.095377362060546,12.981774389648438C21.095377362060546,13.286034389648437,21.196777362060548,13.488824389648437,21.29817736206055,13.691664389648437C21.29817736206055,13.691664389648437,16.734267362060546,19.57405438964844,16.734267362060546,19.57405438964844C16.531427362060548,19.371214389648436,16.125747362060547,19.269734389648438,15.821487362060546,19.269734389648438C15.010127362060548,19.269734389648438,14.401647362060547,19.878284389648435,14.401647362060547,20.689644389648436C14.401647362060547,20.689644389648436,14.401647362060547,20.791034389648438,14.401647362060547,20.791034389648438C14.401647362060547,20.791034389648438,10.141997362060547,21.906674389648437,10.141997362060547,21.906674389648437C9.837737362060547,21.50099438964844,9.432077362060546,21.196734389648437,8.924977362060547,21.196734389648437C8.113619362060547,21.196734389648437,7.505077362060547,21.80527438964844,7.505077362060547,22.616674389648438C7.505077362060547,23.427974389648437,8.113619362060547,24.03647438964844,8.924977362060547,24.03647438964844C9.634917362060547,24.03647438964844,10.243427362060547,23.52937438964844,10.344847362060547,22.819374389648438C10.344847362060547,22.819374389648438,14.807287362060546,21.703874389648437,14.807287362060546,21.703874389648437C15.111547362060547,22.008074389648435,15.415807362060548,22.109574389648436,15.821487362060546,22.109574389648436C16.632847362060545,22.109574389648436,17.241367362060547,21.50099438964844,17.241367362060547,20.689644389648436C17.241367362060547,20.689644389648436,17.241367362060547,20.588254389648437,17.241367362060547,20.588254389648437C17.241367362060547,20.588254389648437,22.008077362060547,14.401614389648437,22.008077362060547,14.401614389648437C22.210977362060547,14.503034389648437,22.312377362060545,14.503064389648438,22.515177362060548,14.503064389648438C22.920877362060548,14.503064389648438,23.326577362060547,14.300224389648438,23.63087736206055,13.995964389648437C23.63087736206055,13.995964389648437,25.76057736206055,15.415824389648439,25.76057736206055,15.415824389648439C25.659177362060547,15.618654389648437,25.659177362060547,15.821524389648438,25.659177362060547,16.024364389648436C25.659177362060547,16.835724389648437,26.267777362060546,17.444214389648437,27.07907736206055,17.444214389648437C27.890477362060548,17.444214389648437,28.498977362060547,16.835724389648437,28.498977362060547,16.024364389648436C28.498977362060547,15.213014389648437,27.789077362060546,14.503064389648438,27.07907736206055,14.503064389648438C27.07907736206055,14.503064389648438,27.07907736206055,14.503064389648438,27.07907736206055,14.503064389648438Z" fill="#43655A" fill-opacity="1"/></g><g style="mix-blend-mode:passthrough"><path d="M17.95128588142395,2.535491943359375C9.53342588142395,2.535491943359375,2.63688588142395,9.432061943359376,2.63688588142395,17.849891943359374C2.63688588142395,21.906691943359377,4.25959588142395,25.760691943359376,7.09934588142395,28.701791943359375C9.939095881423949,31.541591943359375,13.79308588142395,33.164091943359374,17.95128588142395,33.164091943359374C26.36908588142395,33.164091943359374,33.26548588142395,26.267691943359374,33.26548588142395,17.849891943359374C33.26548588142395,9.432061943359376,26.36908588142395,2.535491943359375,17.95128588142395,2.535491943359375C17.95128588142395,2.535491943359375,17.95128588142395,2.535491943359375,17.95128588142395,2.535491943359375ZM17.95128588142395,32.149991943359375C14.09728588142395,32.149991943359375,10.547615881423951,30.628791943359374,7.80928588142395,27.991891943359374C5.07096588142395,25.253491943359375,3.65108588142395,21.703791943359374,3.65108588142395,17.849891943359374C3.65108588142395,9.939151943359375,10.04051588142395,3.5496919433593748,17.95128588142395,3.5496919433593748C25.86198588142395,3.5496919433593748,32.25138588142395,9.939151943359375,32.25138588142395,17.849891943359374C32.25138588142395,25.760591943359376,25.76058588142395,32.149991943359375,17.95128588142395,32.149991943359375C17.95128588142395,32.149991943359375,17.95128588142395,32.149991943359375,17.95128588142395,32.149991943359375Z" fill="#43655A" fill-opacity="1"/></g><g style="mix-blend-mode:passthrough"><path d="M31.7445,29.1074C34.28,25.9634,35.6996,22.0081,35.6996,17.8499C35.6996,8.01218,27.6876,0,17.8499,0C8.01215,0,0,8.01218,0,17.8499C0,27.6876,8.01215,35.6996,17.8499,35.6996C21.9066,35.6996,25.862,34.28,29.1074,31.7445C29.1074,31.7445,47.3629,50,47.3629,50C47.3629,50,50,47.3629,50,47.3629C50,47.3629,31.7445,29.1074,31.7445,29.1074C31.7445,29.1074,31.7445,29.1074,31.7445,29.1074ZM29.2089,30.3245C29.2089,30.3245,28.8032,30.6286,28.8032,30.6286C25.7606,33.2658,21.9066,34.6854,17.8499,34.6854C8.62067,34.6854,1.0142,27.1805,1.0142,17.8499C1.0142,8.6207,8.51925,1.0142,17.8499,1.0142C27.079,1.0142,34.6854,8.51928,34.6854,17.8499C34.6854,21.8053,33.2658,25.7606,30.6286,28.8032C30.6286,28.8032,30.3245,29.2089,30.3245,29.2089C30.3245,29.2089,48.4787,47.3629,48.4787,47.3629C48.4787,47.3629,47.2615,48.5801,47.2615,48.5801C47.2615,48.5801,29.2089,30.3245,29.2089,30.3245C29.2089,30.3245,29.2089,30.3245,29.2089,30.3245Z" fill="#43655A" fill-opacity="1"/></g></g></g></svg>